<svg xmlns="http://www.w3.org/2000/svg" xmlns:xlink="http://www.w3.org/1999/xlink" version="1.1" x="0px" y="0px" viewBox="0 0 100 125" enable-background="new 0 0 100 100" xml:space="preserve"><polygon fill="#000000" points="25.764,24.056 17.353,35.136 24.952,34.09 "/><polygon fill="#000000" points="17.197,30.597 13.569,38.001 15.836,35.53 "/><polygon fill="#000000" points="19.428,26.12 17.395,33.492 24.851,23.672 "/><polygon fill="#000000" points="15.353,37.478 12.174,40.942 12.849,47.608 "/><polygon fill="#000000" points="43.322,12.347 36.037,14.652 40.862,13.99 "/><polygon fill="#000000" points="28.401,18.349 21.866,23.966 26.045,22.079 "/><polygon fill="#000000" points="38.515,15.281 30.806,16.34 27.769,21.149 "/><polygon fill="#000000" points="17.276,70.891 19.652,73.58 16.851,69.557 "/><polygon fill="#000000" points="11.944,48.21 11.839,51.949 12.165,50.388 "/><polygon fill="#000000" points="26.314,75.165 25.356,79.808 32.509,82.129 "/><polygon fill="#000000" points="53.001,12.877 46.495,11.384 42.876,13.802 "/><polygon fill="#000000" points="17.371,68.624 24.556,78.941 25.504,74.343 "/><polygon fill="#000000" points="19.511,59.39 16.035,66.513 24.976,72.798 "/><polygon fill="#000000" points="11.708,57.276 14.321,63.062 12.603,52.99 "/><polygon fill="#000000" points="13.407,51.993 15.647,65.118 18.979,58.29 "/><polygon fill="#000000" points="56.285,12.597 55.806,12.537 56.088,12.602 "/><polygon fill="#000000" points="79.076,44.501 68.081,50.854 77.38,59.222 "/><polygon fill="#000000" points="80.012,44.771 78.372,58.995 86.104,52.035 "/><polygon fill="#000000" points="80.344,43.673 86.103,50.541 84.856,40.011 "/><polygon fill="#000000" points="76.911,61.022 64.457,65.626 71.711,74.237 "/><polygon fill="#000000" points="80.016,42.702 84.557,39.018 78.364,31.389 "/><polygon fill="#000000" points="56.265,79.29 48.19,85.958 62.759,84.601 "/><polygon fill="#000000" points="63.73,66.255 57.205,77.965 70.986,74.868 "/><polygon fill="#000000" points="70.626,75.933 57.329,78.923 63.897,84.292 "/><polygon fill="#000000" points="84.419,37.325 83.089,30.108 78.63,30.193 "/><polygon fill="#000000" points="28.629,81.879 35.695,86.14 33.751,83.542 "/><polygon fill="#000000" points="62.693,13.436 62.657,13.415 58.802,13.5 67.713,16.478 "/><polygon fill="#000000" points="70.042,18.267 57.577,14.102 63.076,20.335 "/><polygon fill="#000000" points="75.228,20.993 75.038,20.881 75.614,21.432 "/><polygon fill="#000000" points="76.417,28.438 71.396,18.867 64.1,21.032 "/><polygon fill="#000000" points="50.078,17.408 54.542,13.7 43.133,14.741 "/><polygon fill="#000000" points="69.633,84.38 72.911,81.057 66.095,84.448 "/><polygon fill="#000000" points="65.717,83.563 74.522,79.183 71.865,75.926 "/><polygon fill="#000000" points="72.592,75.297 75.247,78.551 80.938,70.481 "/><polygon fill="#000000" points="41.255,87.802 50.875,89.011 46.609,87.076 "/><polygon fill="#000000" points="80.899,74.677 81.64,71.151 77.33,77.262 "/><polygon fill="#000000" points="59.92,87.491 66.524,85.4 64.084,85.447 "/><polygon fill="#000000" points="48.527,86.893 53.947,89.351 61.409,85.69 "/><polygon fill="#000000" points="86.957,49.586 88.617,43.546 85.885,40.526 "/><polygon fill="#000000" points="88.303,56.377 88.558,47.388 87.265,52.09 "/><polygon fill="#000000" points="83.701,66.476 88.165,59.882 86.764,54.099 "/><polygon fill="#000000" points="35.265,83.963 37.765,87.306 44.277,86.423 "/><polygon fill="#000000" points="72.812,74.062 81.94,68.795 77.822,61.327 "/><polygon fill="#000000" points="82.589,71.304 85.216,65.95 83.038,69.167 "/><polygon fill="#000000" points="78.354,60.303 82.416,67.671 85.928,53.484 "/><polygon fill="#000000" points="82.313,29.161 73.422,20.664 77.924,29.245 "/><polygon fill="#000000" points="18.961,56.822 18.134,46.183 13.327,50.454 "/><polygon fill="#000000" points="87.664,41.062 84.795,34.071 85.679,38.868 "/><polygon fill="#000000" points="54.127,44.071 44.044,52.739 55.196,55.503 "/><polygon fill="#000000" points="13.486,49.028 18.004,45.015 16.263,37.793 "/><polygon fill="#000000" points="47.904,66.182 42.865,53.859 33.439,64.005 "/><polygon fill="#000000" points="43.31,52.103 53.605,43.253 39.917,37.794 "/><polygon fill="#000000" points="54.96,56.435 43.827,53.676 48.77,65.761 "/><polygon fill="#000000" points="52.521,26.344 61.623,21.076 50.802,18.595 "/><polygon fill="#000000" points="51.221,17.706 61.572,20.08 55.986,13.749 "/><polygon fill="#000000" points="16.859,36.173 18.741,43.979 24.432,35.131 "/><polygon fill="#000000" points="67.542,51.661 64.333,64.649 76.839,60.026 "/><polygon fill="#000000" points="26.478,34.22 38.733,36.428 38.235,24.105 "/><polygon fill="#000000" points="25.973,33.387 37.453,23.512 26.816,22.961 "/><polygon fill="#000000" points="38.314,22.595 40.277,15.413 28.093,22.065 "/><polygon fill="#000000" points="40.058,23.002 51.549,26.396 49.827,18.636 "/><polygon fill="#000000" points="39.405,22.242 48.918,17.989 41.361,15.088 "/><polygon fill="#000000" points="53.213,27.053 66.416,33.531 62.642,21.598 "/><polygon fill="#000000" points="27.766,47.395 38.229,37.312 25.972,35.104 "/><polygon fill="#000000" points="32.419,65.295 26.795,73.854 38.634,77.33 "/><polygon fill="#000000" points="38.619,78.327 27.51,75.064 34.08,82.451 "/><polygon fill="#000000" points="67.507,33.796 76.606,29.672 63.76,21.947 "/><polygon fill="#000000" points="39.528,78.798 35.014,82.898 45.328,85.715 "/><polygon fill="#000000" points="26.631,48.612 19.073,45.885 19.935,56.966 "/><polygon fill="#000000" points="31.765,64.541 20.462,59.177 26.138,73.105 "/><polygon fill="#000000" points="19.267,44.936 26.834,47.665 25.11,35.852 "/><polygon fill="#000000" points="27.238,49.389 20.304,58.04 31.679,63.438 "/><polygon fill="#000000" points="28.353,48.161 42.367,52.288 38.965,37.937 "/><polygon fill="#000000" points="39.68,36.063 51.152,27.281 39.182,23.745 "/><polygon fill="#000000" points="32.678,63.414 42.146,53.224 28.154,49.103 "/><polygon fill="#000000" points="55.785,56.929 49.623,66.212 62.684,65.02 "/><polygon fill="#000000" points="40.199,36.874 53.924,42.347 51.836,27.966 "/><polygon fill="#000000" points="55.085,44.002 56.152,55.41 66.248,50.716 "/><polygon fill="#000000" points="54.883,42.271 66.26,34.524 52.8,27.92 "/><polygon fill="#000000" points="66.735,35.362 55.409,43.076 66.786,49.919 "/><polygon fill="#000000" points="66.562,51.626 56.512,56.301 63.408,64.39 "/><polygon fill="#000000" points="47.772,67.132 33.326,64.958 39.663,77.231 "/><polygon fill="#000000" points="54.979,79.106 40.634,78.622 46.743,85.908 "/><polygon fill="#000000" points="67.696,35.407 67.746,49.938 78.786,43.559 "/><polygon fill="#000000" points="77.254,30.433 68.157,34.556 79.021,42.54 "/><polygon fill="#000000" points="48.624,67.604 40.55,77.66 55.367,78.159 "/><polygon fill="#000000" points="62.788,65.975 49.498,67.188 56.234,77.734 "/><text x="0" y="115" fill="#000000" font-size="5px" font-weight="bold" font-family="'Helvetica Neue', Helvetica, Arial-Unicode, Arial, Sans-serif">Created by Lluisa Iborra</text><text x="0" y="120" fill="#000000" font-size="5px" font-weight="bold" font-family="'Helvetica Neue', Helvetica, Arial-Unicode, Arial, Sans-serif">from the Noun Project</text></svg>