<?xml version="1.0" standalone="no"?>
<!DOCTYPE svg PUBLIC "-//W3C//DTD SVG 20010904//EN"
 "http://www.w3.org/TR/2001/REC-SVG-20010904/DTD/svg10.dtd">
<svg version="1.0" xmlns="http://www.w3.org/2000/svg"
 width="700.000000pt" height="700.000000pt" viewBox="0 0 700.000000 700.000000"
 preserveAspectRatio="xMidYMid meet">
<metadata>
Created by potrace 1.14, written by Peter Selinger 2001-2017
</metadata>
<g transform="translate(0.000000,700.000000) scale(0.100000,-0.100000)"
fill="#000000" stroke="none">
<path d="M3136 6125 c-91 -61 -158 -113 -121 -92 6 3 53 8 105 12 52 4 107 8
121 10 14 2 66 6 115 10 49 4 97 9 107 11 11 2 58 6 105 9 48 4 96 9 107 12
18 5 -379 103 -415 102 -8 0 -64 -33 -124 -74z"/>
<path d="M2775 6054 c-126 -40 -223 -73 -215 -73 8 0 44 4 80 9 36 5 85 12
110 15 25 3 60 8 78 10 28 4 213 117 187 114 -6 -1 -113 -34 -240 -75z"/>
<path d="M4150 6050 c0 -3 129 -49 286 -102 158 -53 283 -93 278 -88 -5 4 -80
51 -168 104 l-158 97 -119 -3 c-66 -1 -119 -5 -119 -8z"/>
<path d="M3748 6035 c-2 -2 -41 -6 -88 -9 -47 -4 -101 -8 -120 -10 -19 -3 -68
-7 -109 -11 -41 -3 -92 -8 -115 -10 -23 -2 -70 -6 -106 -10 -103 -9 -175 -17
-177 -19 -2 -1 104 -43 235 -93 l237 -91 40 31 c22 18 42 34 45 37 3 3 46 39
95 80 138 114 133 109 96 108 -17 -1 -32 -2 -33 -3z"/>
<path d="M3784 5927 c-66 -56 -137 -115 -157 -131 -41 -33 -38 -38 28 -51 22
-5 45 -9 50 -11 217 -51 588 -134 591 -131 2 2 -6 15 -18 28 -13 14 -97 109
-187 212 -90 103 -169 187 -175 186 -6 0 -65 -46 -132 -102z"/>
<path d="M4046 5998 c5 -9 38 -48 74 -88 36 -40 70 -78 75 -84 6 -6 57 -64
114 -129 56 -64 107 -117 112 -117 16 0 453 132 461 139 4 4 -179 69 -408 146
-229 77 -421 142 -426 144 -7 2 -7 -2 -2 -11z"/>
<path d="M2828 5698 c-37 -134 -65 -245 -63 -247 3 -3 235 97 380 164 28 13
97 44 155 70 109 48 137 65 107 65 -10 0 -25 4 -35 9 -9 6 -66 29 -127 51
-179 68 -237 90 -287 111 -26 10 -51 19 -56 19 -5 0 -38 -109 -74 -242z"/>
<path d="M2535 5909 c-66 -10 -140 -20 -165 -24 -73 -9 -124 -16 -145 -20 -11
-2 -30 -4 -42 -4 -16 -1 -34 -19 -63 -62 -22 -33 -40 -62 -40 -64 0 -4 -66
-106 -106 -164 -13 -19 -21 -37 -19 -39 2 -3 138 69 302 158 164 90 324 177
355 194 50 27 74 48 51 45 -5 -1 -62 -9 -128 -20z"/>
<path d="M2640 5824 c-85 -47 -193 -106 -240 -131 -47 -25 -89 -49 -95 -53 -5
-4 -50 -29 -100 -55 -117 -62 -227 -126 -223 -130 2 -1 68 -5 148 -9 80 -3
199 -9 265 -12 66 -4 158 -7 204 -8 l84 -1 59 210 c32 116 60 220 62 232 3 13
7 27 11 33 14 23 -28 5 -175 -76z"/>
<path d="M1925 5662 c-22 -20 -64 -57 -94 -82 -29 -25 -59 -50 -65 -55 -6 -6
-60 -52 -119 -103 -60 -50 -106 -92 -104 -92 2 0 67 28 143 63 l138 62 74 118
c41 65 73 120 71 122 -2 2 -22 -13 -44 -33z"/>
<path d="M3560 5686 c0 -6 7 -38 15 -72 8 -34 16 -72 19 -85 10 -55 80 -364
82 -367 3 -5 73 35 398 223 132 76 235 140 230 142 -5 1 -99 23 -209 48 -110
25 -236 55 -280 65 -201 48 -255 58 -255 46z"/>
<path d="M3380 5648 c-47 -22 -182 -83 -300 -135 -118 -52 -228 -102 -245
-111 l-30 -16 30 -7 c17 -3 192 -54 390 -113 197 -58 365 -106 371 -106 9 0
10 9 4 33 -5 17 -12 46 -14 62 -3 17 -26 119 -51 228 -25 110 -45 201 -45 203
0 10 -31 -1 -110 -38z"/>
<path d="M4775 5614 c-115 -35 -227 -69 -248 -75 l-39 -10 44 -27 c24 -15 53
-32 64 -39 48 -30 229 -140 253 -153 46 -27 455 -273 479 -288 22 -14 22 -13
-6 39 -16 30 -61 115 -99 189 -206 396 -225 430 -232 429 -3 -1 -100 -30 -216
-65z"/>
<path d="M5150 5539 c0 -4 27 -57 60 -120 33 -63 101 -193 152 -290 l92 -176
130 3 c72 1 142 3 155 3 23 1 22 3 -16 39 -23 20 -123 116 -224 212 -100 96
-192 184 -204 195 -12 11 -49 47 -83 80 -34 33 -62 57 -62 54z"/>
<path d="M4053 5297 c-171 -100 -314 -185 -317 -188 -3 -3 112 -63 257 -134
144 -70 347 -170 451 -222 103 -51 192 -93 197 -93 5 0 4 10 -1 23 -5 12 -55
168 -111 347 -140 448 -140 450 -153 449 -6 0 -151 -82 -323 -182z"/>
<path d="M4479 5408 c10 -29 44 -132 74 -228 147 -465 172 -540 183 -540 6 0
24 6 40 14 51 25 196 92 385 177 101 45 187 85 191 88 6 5 -850 528 -883 539
-5 2 -1 -20 10 -50z"/>
<path d="M1879 5383 c0 -4 -2 -15 -4 -23 -1 -8 -5 -58 -9 -110 -4 -52 -9 -113
-11 -135 -3 -22 -7 -71 -10 -110 -3 -38 -7 -95 -10 -125 -18 -220 -18 -215 2
-199 25 20 297 252 303 259 3 3 34 30 70 60 36 30 67 57 70 60 3 3 80 70 173
149 92 79 167 145 167 145 0 1 -8 2 -17 2 -30 1 -324 16 -388 20 -196 11 -335
14 -336 7z"/>
<path d="M1620 5289 c-58 -26 -138 -63 -178 -81 -41 -18 -77 -40 -82 -48 -4
-8 -24 -76 -45 -150 -20 -74 -49 -180 -65 -235 -16 -55 -27 -101 -25 -103 1
-1 80 100 176 225 95 125 209 274 252 331 43 57 77 105 76 106 -2 2 -51 -18
-109 -45z"/>
<path d="M2746 5263 c3 -67 9 -220 20 -503 8 -221 11 -270 16 -275 5 -5 788
594 788 603 0 6 -103 38 -280 88 -25 7 -151 44 -280 83 -129 39 -242 71 -251
71 -14 0 -16 -10 -13 -67z"/>
<path d="M1770 5272 c-14 -19 -30 -40 -35 -46 -6 -6 -50 -65 -99 -131 -50 -66
-92 -122 -96 -125 -3 -3 -46 -59 -95 -125 -49 -66 -120 -159 -157 -207 -38
-48 -68 -89 -68 -92 0 -5 40 0 170 19 14 2 97 13 185 25 88 12 163 24 167 28
3 4 9 45 12 92 4 47 9 108 11 135 3 28 7 77 10 110 3 55 6 93 20 268 3 32 7
63 10 67 3 5 2 11 -3 14 -4 2 -19 -12 -32 -32z"/>
<path d="M2474 5139 c-109 -95 -219 -189 -244 -211 -25 -21 -118 -100 -207
-176 -89 -75 -162 -140 -162 -144 -1 -3 18 -9 42 -13 69 -11 91 -15 117 -20
22 -4 88 -16 160 -29 14 -2 52 -9 85 -15 33 -6 74 -13 90 -16 17 -3 39 -7 51
-10 12 -3 39 -7 60 -10 21 -4 71 -12 109 -20 39 -8 85 -17 103 -20 l34 -6 -7
173 c-4 95 -8 202 -10 238 -2 36 -7 150 -10 255 -4 104 -8 191 -9 192 -1 2
-92 -74 -202 -168z"/>
<path d="M3560 4990 c-36 -28 -74 -57 -85 -66 -356 -269 -652 -501 -646 -507
4 -4 212 -89 462 -188 250 -100 460 -184 468 -187 14 -5 14 -5 -4 138 -4 25
-10 70 -15 100 -5 30 -12 75 -15 100 -3 25 -8 56 -10 70 -7 38 -13 78 -25 165
-6 44 -12 91 -14 105 -6 34 -24 154 -31 210 -3 25 -9 60 -13 78 l-7 33 -65
-51z"/>
<path d="M3700 5023 c0 -10 7 -59 15 -109 8 -50 17 -113 20 -140 3 -27 8 -56
10 -64 2 -8 7 -40 10 -70 3 -30 8 -62 10 -70 2 -8 7 -40 10 -70 3 -30 8 -62
10 -70 2 -8 7 -37 10 -65 3 -27 7 -61 10 -75 6 -33 13 -75 20 -130 3 -25 8
-62 11 -82 l6 -37 196 134 c108 73 288 195 399 271 l202 137 -107 53 c-372
183 -825 404 -828 404 -2 0 -4 -8 -4 -17z"/>
<path d="M5510 4884 c0 -5 108 -142 120 -154 3 -3 55 -66 115 -140 60 -74 117
-144 127 -154 10 -11 18 -23 18 -28 0 -4 4 -8 9 -8 5 0 3 30 -4 68 -7 37 -15
81 -18 97 -3 17 -17 92 -31 168 -14 76 -26 143 -26 148 0 6 -60 9 -155 8 -85
0 -155 -3 -155 -5z"/>
<path d="M5092 4727 c-172 -78 -311 -145 -310 -149 2 -4 94 -74 205 -155 110
-81 276 -203 367 -270 91 -68 169 -123 172 -123 3 0 3 15 1 33 -3 17 -10 68
-17 112 -6 44 -13 94 -16 110 -10 61 -13 83 -29 195 -9 63 -18 126 -20 140 -9
59 -24 158 -30 200 -4 25 -7 46 -8 47 -1 0 -143 -62 -315 -140z"/>
<path d="M1075 4594 c-61 -124 -112 -230 -114 -236 -2 -5 19 15 45 44 27 29
51 55 54 58 36 37 53 67 69 126 10 38 28 104 40 148 12 43 20 80 18 82 -1 2
-52 -98 -112 -222z"/>
<path d="M5494 4750 c3 -25 7 -56 10 -70 3 -14 7 -47 11 -75 3 -27 8 -59 11
-70 2 -11 6 -41 9 -68 2 -26 9 -73 14 -105 6 -31 13 -79 16 -107 3 -27 10 -72
15 -100 5 -27 11 -67 13 -88 3 -21 8 -41 11 -44 4 -5 233 172 256 197 3 3 17
15 32 27 l28 21 -201 248 c-248 307 -233 291 -225 234z"/>
<path d="M5945 4558 c4 -13 10 -40 21 -108 27 -159 29 -165 90 -238 33 -39 62
-71 66 -71 4 -1 -8 36 -26 82 -105 261 -141 347 -148 347 -4 0 -5 -6 -3 -12z"/>
<path d="M1657 4534 c-1 -2 -25 -5 -52 -8 -75 -9 -420 -58 -422 -60 -2 -2 -2
-3 56 -246 24 -96 44 -182 46 -190 8 -38 26 -100 29 -100 2 0 82 122 177 270
96 149 184 286 197 305 l22 35 -25 -2 c-15 -2 -27 -3 -28 -4z"/>
<path d="M1825 4488 c4 -29 9 -62 11 -73 2 -10 6 -35 9 -55 3 -19 18 -127 35
-240 17 -113 32 -218 35 -235 2 -16 9 -61 14 -100 6 -38 11 -76 11 -83 0 -8 4
-12 9 -10 8 3 224 209 598 572 68 66 121 121 119 123 -4 5 -5 5 -276 53 -124
22 -236 42 -250 45 -39 8 -243 44 -285 51 l-37 6 7 -54z"/>
<path d="M4494 4404 c-93 -64 -269 -184 -392 -267 -195 -132 -220 -152 -205
-162 26 -18 771 -465 775 -465 5 0 0 1002 -5 1006 -2 2 -80 -48 -173 -112z"/>
<path d="M4740 4015 c0 -439 2 -506 14 -502 14 6 225 126 581 333 93 55 168
103 167 107 -1 4 -167 130 -369 279 -202 149 -374 275 -380 280 -10 8 -13 -92
-13 -497z"/>
<path d="M1737 4458 c-9 -12 -99 -153 -201 -312 -102 -159 -185 -290 -184
-291 7 -6 509 -185 519 -185 6 0 8 8 5 18 -4 13 -26 159 -41 277 -3 18 -19
132 -31 210 -2 17 -6 41 -9 55 -3 14 -7 43 -10 65 -10 92 -24 177 -29 182 -2
3 -11 -6 -19 -19z"/>
<path d="M1053 4357 c-4 -8 -51 -60 -103 -117 -73 -78 -95 -108 -94 -129 1
-30 13 -152 19 -196 6 -50 19 -210 17 -217 -1 -5 1 -8 6 -8 6 0 119 435 136
525 2 11 11 49 21 84 16 62 15 87 -2 58z"/>
<path d="M2800 4339 c0 -8 7 -43 16 -79 9 -36 17 -72 19 -80 7 -28 66 -275 86
-360 12 -47 23 -95 25 -106 10 -53 83 -347 88 -351 2 -3 35 21 73 54 37 32 81
70 97 83 16 14 47 41 70 61 23 20 124 107 226 194 102 87 200 172 218 188 l32
31 -107 44 c-60 23 -130 51 -158 62 -27 10 -187 73 -355 140 -168 67 -311 124
-317 127 -7 3 -13 -1 -13 -8z"/>
<path d="M1102 4212 c-84 -342 -152 -620 -152 -626 0 -11 30 13 116 89 91 82
188 167 192 170 1 1 -15 76 -37 166 -22 90 -47 198 -56 239 -10 41 -20 78 -24
82 -4 5 -21 -49 -39 -120z"/>
<path d="M2659 4279 c-35 -34 -165 -159 -289 -279 -124 -119 -260 -251 -303
-292 -43 -42 -75 -78 -70 -81 4 -3 55 -18 113 -35 58 -17 150 -44 205 -60 55
-16 188 -55 295 -87 107 -31 230 -67 273 -81 43 -13 79 -24 81 -24 1 0 -6 33
-16 73 -10 39 -20 81 -22 92 -2 11 -27 119 -56 240 -46 195 -95 402 -105 445
-8 37 -37 145 -39 148 -2 1 -32 -25 -67 -59z"/>
<path d="M5800 4087 c-69 -56 -136 -112 -149 -124 l-24 -22 56 -68 c31 -37 68
-81 82 -98 33 -38 49 -57 105 -125 120 -146 163 -191 156 -165 -3 11 -8 45
-11 75 -3 30 -10 89 -15 130 -9 71 -14 112 -26 225 -3 28 -12 97 -19 155 -7
58 -11 108 -8 113 2 4 -2 7 -9 6 -7 0 -69 -46 -138 -102z"/>
<path d="M6016 4130 c2 -19 8 -73 14 -120 6 -47 12 -103 15 -125 3 -22 7 -65
10 -95 3 -30 8 -66 10 -80 5 -26 17 -136 18 -157 0 -15 10 -8 13 10 2 7 25 94
53 195 28 101 51 186 51 191 0 4 -29 39 -63 77 -35 38 -78 85 -94 104 l-31 34
4 -34z"/>
<path d="M3853 3913 c3 -4 8 -45 12 -91 4 -46 8 -96 10 -110 2 -15 6 -63 10
-107 4 -44 8 -91 10 -105 2 -14 6 -59 10 -100 10 -129 25 -273 28 -277 1 0
139 63 307 141 168 78 324 151 348 161 23 10 42 21 42 24 0 6 -674 415 -748
454 -19 10 -32 15 -29 10z"/>
<path d="M3769 3898 c-8 -7 -43 -38 -79 -68 -35 -30 -70 -60 -76 -66 -6 -5
-31 -26 -54 -45 -23 -18 -50 -41 -59 -49 -9 -9 -47 -43 -86 -75 -38 -33 -85
-74 -105 -91 -19 -17 -75 -66 -125 -109 -95 -82 -103 -91 -83 -92 7 -1 87 -20
178 -43 386 -97 561 -140 571 -140 10 0 8 81 -6 200 -2 19 -7 64 -10 100 -3
36 -8 85 -10 110 -3 25 -7 74 -10 110 -12 148 -25 263 -29 268 -2 2 -10 -3
-17 -10z"/>
<path d="M5154 3665 c-203 -118 -373 -217 -379 -219 -5 -2 5 -18 22 -34 18
-16 69 -62 114 -103 45 -41 87 -78 93 -84 6 -5 49 -44 96 -85 46 -41 94 -84
106 -95 59 -56 188 -171 200 -178 11 -6 14 0 16 25 0 18 2 38 3 43 2 16 16
126 21 175 3 25 9 79 14 120 10 82 17 146 26 230 3 30 7 65 9 78 2 13 7 53 11
90 3 37 8 75 10 85 2 10 6 46 9 80 4 34 9 65 11 69 19 30 -59 -11 -382 -197z"/>
<path d="M5600 3850 c-1 -8 -3 -22 -5 -30 -1 -8 -6 -45 -9 -82 -4 -37 -9 -77
-11 -90 -2 -13 -6 -54 -10 -91 -3 -37 -8 -76 -10 -85 -1 -9 -6 -46 -9 -82 -4
-36 -8 -76 -10 -90 -3 -14 -7 -52 -11 -85 -3 -33 -13 -118 -21 -188 -8 -70
-14 -133 -12 -139 3 -8 12 -5 24 8 11 10 60 55 110 98 49 44 94 85 99 90 6 6
53 49 105 96 52 47 97 87 100 90 3 3 26 24 51 46 l46 42 -74 88 c-41 49 -82
98 -91 109 -21 25 -209 248 -239 284 -16 18 -23 21 -23 11z"/>
<path d="M1333 3773 c3 -5 8 -53 12 -108 4 -55 8 -113 10 -130 1 -16 6 -75 10
-129 4 -54 9 -111 10 -125 2 -14 7 -75 10 -136 4 -60 9 -114 12 -118 2 -4 72
77 155 180 82 103 162 204 178 223 133 165 142 180 107 180 -7 0 -59 18 -117
39 -308 115 -399 144 -387 124z"/>
<path d="M1159 3669 c-57 -50 -132 -117 -166 -147 l-61 -55 86 -96 c47 -53 89
-98 92 -101 3 -3 32 -36 65 -75 33 -38 81 -92 108 -120 47 -49 47 -50 43 -20
-2 17 -7 71 -11 120 -10 155 -15 218 -20 265 -2 25 -7 81 -10 125 -9 124 -16
189 -20 193 -1 2 -50 -38 -106 -89z"/>
<path d="M6151 3508 l-42 -153 35 -145 c23 -95 35 -133 36 -110 9 212 19 560
16 560 -1 0 -22 -69 -45 -152z"/>
<path d="M833 3542 c0 -12 5 -22 9 -22 11 0 10 12 -2 30 -7 12 -9 10 -7 -8z"/>
<path d="M1992 3497 c11 -34 46 -145 78 -247 32 -102 84 -266 115 -365 31 -99
67 -213 79 -253 l22 -73 95 102 c51 56 105 113 118 128 13 14 74 80 136 146
61 66 138 149 171 184 32 35 76 82 97 103 32 33 46 58 33 58 -1 0 -207 60
-457 133 -250 74 -466 137 -480 140 l-27 7 20 -63z"/>
<path d="M1670 3248 c-129 -161 -236 -298 -238 -303 -1 -6 41 -32 95 -57 54
-26 166 -79 248 -119 83 -39 182 -86 220 -104 39 -18 103 -49 143 -68 39 -19
72 -30 72 -24 0 10 -278 894 -297 945 -8 20 -33 -7 -243 -270z"/>
<path d="M830 3448 c0 -74 8 -72 16 5 4 39 3 57 -5 57 -7 0 -11 -23 -11 -62z"/>
<path d="M4440 3284 c-272 -127 -291 -135 -392 -183 -49 -22 -88 -42 -88 -45
0 -2 6 -11 13 -18 6 -7 37 -42 67 -78 30 -36 60 -70 65 -76 6 -6 31 -35 56
-65 139 -164 227 -268 251 -296 l26 -32 27 112 c15 62 36 144 46 182 10 39 46
183 79 320 33 138 63 256 65 263 2 6 1 12 -3 12 -4 0 -99 -43 -212 -96z"/>
<path d="M4727 3373 c-10 -18 -220 -884 -215 -888 3 -3 68 17 144 45 77 29
236 88 354 131 118 44 248 92 288 107 39 15 72 29 72 33 0 3 -33 35 -72 70
-40 35 -77 69 -83 75 -5 6 -100 91 -210 189 -110 98 -216 194 -236 212 -20 19
-39 31 -42 26z"/>
<path d="M945 3330 c3 -14 7 -38 9 -55 4 -29 28 -172 60 -355 8 -47 17 -101
20 -120 3 -19 12 -75 21 -125 21 -123 23 -134 31 -180 3 -22 8 -42 10 -44 2
-2 38 68 80 155 42 88 94 193 115 235 l38 77 -20 23 c-11 13 -46 53 -77 88
-31 35 -64 72 -72 81 -97 111 -151 171 -183 205 -34 36 -37 37 -32 15z"/>
<path d="M881 3280 c-1 -3 -10 -48 -22 -100 -11 -52 -22 -104 -25 -115 -2 -11
-6 -32 -9 -47 -5 -19 8 -58 45 -140 29 -62 66 -144 83 -183 31 -71 54 -107 44
-70 -3 11 -11 54 -17 95 -7 41 -14 84 -16 95 -10 51 -24 134 -30 169 -3 21 -7
48 -10 59 -2 12 -6 37 -9 57 -10 60 -33 185 -34 180z"/>
<path d="M5970 3217 c-19 -18 -87 -79 -150 -136 -63 -57 -153 -138 -199 -180
-46 -42 -95 -86 -110 -98 l-25 -22 19 -38 c90 -174 261 -469 266 -460 5 9 69
258 84 327 2 8 17 71 35 140 18 69 34 134 36 145 2 11 22 94 45 183 22 90 39
166 37 167 -2 2 -19 -11 -38 -28z"/>
<path d="M3077 3223 c5 -15 165 -406 300 -736 20 -48 38 -86 40 -84 2 2 99
148 217 325 192 289 211 321 192 326 -25 7 -701 174 -733 181 -18 4 -21 2 -16
-12z"/>
<path d="M2978 3211 c-1 -5 -52 -62 -113 -127 -60 -64 -117 -125 -126 -135 -9
-10 -63 -69 -121 -131 -58 -62 -120 -129 -138 -148 -18 -19 -55 -59 -82 -88
-28 -29 -48 -56 -44 -59 7 -7 12 -8 86 -18 25 -3 72 -10 105 -15 33 -5 78 -12
100 -15 22 -3 65 -10 95 -15 30 -5 71 -12 90 -14 19 -2 67 -9 105 -16 39 -6
88 -14 110 -16 22 -3 78 -12 125 -19 143 -23 182 -27 178 -16 -1 5 -79 197
-173 425 -152 371 -185 440 -197 407z"/>
<path d="M6056 3145 c-10 -39 -19 -77 -21 -85 -8 -36 -166 -676 -170 -687 -11
-31 10 -3 106 139 56 84 125 184 152 224 l49 72 -32 133 c-18 74 -40 165 -50
204 l-16 70 -18 -70z"/>
<path d="M3696 2700 c-113 -171 -207 -316 -209 -323 -1 -7 3 -11 8 -10 6 0 48
4 95 8 47 4 96 9 110 10 14 1 59 6 100 9 87 8 132 12 215 21 79 8 142 13 245
21 112 9 116 9 112 24 -2 11 -53 73 -127 156 -5 6 -19 22 -30 35 -122 145
-298 350 -305 354 -4 3 -101 -135 -214 -305z"/>
<path d="M1440 2845 c0 -6 192 -484 229 -570 10 -22 49 -118 87 -212 38 -95
71 -173 74 -173 7 0 393 590 389 594 -4 4 -743 354 -766 363 -7 3 -13 2 -13
-2z"/>
<path d="M1243 2593 c-119 -246 -120 -248 -99 -264 12 -8 50 -36 86 -61 36
-25 144 -100 240 -168 96 -68 196 -138 223 -157 26 -18 47 -30 47 -25 0 8
-368 914 -374 919 -1 1 -56 -109 -123 -244z"/>
<path d="M4950 2568 c-234 -87 -428 -159 -432 -160 -6 -3 37 -55 197 -243 23
-27 73 -86 110 -130 37 -44 87 -103 110 -130 24 -28 52 -62 63 -75 11 -14 22
-23 24 -20 2 3 50 122 106 265 55 143 135 347 177 453 42 107 75 195 73 196
-2 1 -194 -69 -428 -156z"/>
<path d="M5437 2683 c-3 -10 -80 -207 -171 -437 -91 -231 -164 -421 -163 -423
2 -1 124 68 272 153 149 86 287 165 308 176 20 11 40 24 43 29 5 8 -30 78
-103 209 -11 19 -35 62 -53 95 -18 33 -50 91 -71 128 -22 38 -39 73 -39 78 0
16 -17 10 -23 -8z"/>
<path d="M2340 2444 c0 -3 46 -94 101 -202 279 -540 333 -642 339 -641 3 0 75
88 160 196 85 107 165 207 177 222 247 304 236 282 143 295 -25 3 -58 8 -75
11 -16 2 -48 7 -70 10 -22 3 -65 10 -95 15 -30 5 -71 11 -90 14 -72 10 -246
36 -265 40 -19 3 -69 10 -155 22 -19 3 -59 9 -89 14 -63 12 -81 12 -81 4z"/>
<path d="M2179 2293 c-46 -71 -132 -202 -191 -292 -59 -90 -108 -165 -108
-166 0 -6 83 -31 440 -136 190 -55 353 -103 363 -106 24 -8 36 -33 -217 457
-53 102 -117 227 -143 278 -26 50 -50 92 -54 92 -3 0 -44 -57 -90 -127z"/>
<path d="M4307 2374 c-1 -1 -40 -5 -87 -9 -47 -3 -98 -8 -115 -9 -16 -2 -66
-7 -110 -10 -44 -4 -96 -9 -115 -11 -43 -5 -152 -15 -205 -20 -161 -13 -200
-17 -204 -21 -2 -2 25 -47 60 -101 34 -54 134 -210 222 -348 88 -137 165 -258
172 -268 11 -15 23 1 97 135 47 84 97 173 110 198 91 162 258 463 258 465 0 3
-80 2 -83 -1z"/>
<path d="M4443 2329 c-32 -54 -424 -759 -429 -774 -4 -11 2 -11 33 -4 21 5
109 25 197 44 87 19 161 37 165 39 3 2 22 7 41 10 19 3 73 14 120 25 47 11 96
22 110 25 81 14 266 59 273 66 7 6 -118 170 -144 190 -3 3 -59 68 -123 145
-65 77 -136 162 -159 189 -23 27 -47 56 -53 64 -9 12 -14 9 -31 -19z"/>
<path d="M5876 2253 c-49 -74 -68 -112 -76 -156 -7 -32 -10 -60 -8 -61 1 -2
38 68 80 155 42 88 75 159 73 159 -2 0 -33 -44 -69 -97z"/>
<path d="M3135 1933 c-143 -179 -268 -334 -277 -344 -10 -10 -14 -20 -10 -23
4 -2 106 -7 227 -11 216 -6 261 -8 618 -20 97 -4 177 -4 177 -1 0 2 -81 132
-181 288 -260 406 -281 438 -288 438 -3 -1 -123 -148 -266 -327z"/>
<path d="M1312 2058 c106 -154 192 -276 210 -300 7 -9 53 -76 102 -147 49 -72
91 -129 93 -127 2 2 17 68 34 146 16 78 32 146 34 150 3 5 -12 21 -32 37 -39
30 -498 353 -521 367 -6 4 29 -53 80 -126z"/>
<path d="M1190 2102 c0 -25 30 -74 80 -132 30 -35 61 -70 68 -79 26 -32 0 13
-56 94 -74 107 -92 130 -92 117z"/>
<path d="M5580 2017 c-41 -24 -170 -99 -287 -166 l-212 -122 91 -112 c50 -62
92 -113 93 -114 1 -2 16 19 35 45 18 26 92 130 163 232 72 102 146 206 165
233 19 26 32 47 30 47 -2 0 -37 -20 -78 -43z"/>
<path d="M5613 1877 c-50 -73 -115 -166 -144 -207 l-53 -74 70 49 c38 27 94
68 124 91 l56 42 17 88 c25 124 29 144 25 144 -2 0 -44 -60 -95 -133z"/>
<path d="M1940 1734 c0 -6 43 -55 187 -214 17 -19 40 -44 50 -56 192 -219 206
-234 222 -221 19 14 12 8 131 117 51 47 111 100 132 119 21 19 37 35 35 37 -2
3 -193 61 -252 77 -11 3 -65 19 -120 35 -55 17 -156 47 -225 67 -69 20 -133
38 -142 41 -10 3 -18 2 -18 -2z"/>
<path d="M1840 1727 c0 -1 -13 -65 -30 -142 -16 -77 -30 -147 -30 -156 0 -13
44 -31 193 -79 105 -34 201 -65 212 -69 58 -23 85 -29 78 -18 -6 10 -145 167
-276 311 -15 17 -51 59 -80 93 -44 52 -67 73 -67 60z"/>
<path d="M4830 1660 c-41 -11 -88 -22 -105 -25 -16 -3 -128 -28 -247 -56 -120
-27 -225 -50 -235 -52 -60 -10 -223 -51 -223 -56 0 -3 15 -16 33 -28 17 -12
43 -33 57 -45 14 -13 79 -67 145 -120 66 -54 136 -111 155 -128 65 -57 53 -64
204 126 77 95 146 182 155 191 9 10 32 38 51 63 19 25 37 47 40 50 3 3 22 26
43 53 45 55 42 56 -73 27z"/>
<path d="M4818 1421 c-115 -142 -208 -260 -208 -263 0 -2 135 64 300 147 165
82 300 152 300 155 0 8 -169 215 -178 217 -4 1 -100 -114 -214 -256z"/>
<path d="M2850 1491 c0 -3 12 -19 28 -36 15 -16 59 -68 97 -115 38 -47 72 -87
75 -90 5 -5 211 -251 217 -259 3 -4 73 49 143 109 25 21 90 75 145 120 55 45
111 91 125 103 14 12 48 40 75 61 69 55 90 76 79 77 -40 3 -374 16 -664 25
-102 3 -215 7 -252 8 -38 2 -68 1 -68 -3z"/>
<path d="M2724 1446 c-22 -19 -57 -51 -79 -73 -23 -21 -73 -67 -113 -102 -40
-35 -72 -67 -72 -70 0 -4 39 -17 88 -30 48 -13 157 -43 242 -66 343 -96 382
-105 368 -88 -7 9 -89 107 -182 217 -92 111 -173 208 -180 217 -21 29 -34 29
-72 -5z"/>
<path d="M3670 1228 c-146 -120 -272 -226 -280 -234 -13 -14 -12 -15 10 -10
14 3 59 8 100 11 41 3 98 8 125 11 111 11 133 13 205 19 41 3 89 8 105 10 17
2 66 7 110 10 44 3 96 8 115 10 19 3 67 7 105 11 116 12 120 12 124 13 2 1
-12 13 -31 29 -19 15 -55 44 -79 64 -110 91 -325 264 -334 270 -5 3 -129 -93
-275 -214z"/>
<path d="M4860 1205 l-225 -114 117 0 117 -1 93 93 c94 94 134 138 127 136 -2
0 -105 -52 -229 -114z"/>
<path d="M2045 1247 c21 -15 384 -235 423 -256 15 -8 3 14 -40 73 l-62 86
-155 51 c-86 29 -163 54 -171 57 -8 2 -6 -2 5 -11z"/>
<path d="M2556 1005 c48 -63 92 -115 98 -115 11 0 156 20 251 35 17 3 61 8 98
11 37 4 70 10 72 14 3 4 -30 17 -73 28 -42 11 -177 47 -300 81 -123 33 -225
61 -228 61 -2 0 35 -52 82 -115z"/>
<path d="M4357 955 c-71 -34 -130 -65 -133 -68 -3 -3 84 24 193 59 109 35 205
65 213 68 8 2 -21 4 -65 4 -78 1 -82 -1 -208 -63z"/>
<path d="M4207 994 c-1 -1 -38 -5 -82 -9 -44 -3 -93 -8 -110 -10 -16 -3 -61
-7 -100 -10 -38 -3 -90 -8 -115 -10 -62 -7 -121 -12 -215 -21 -44 -4 -91 -8
-105 -9 -14 -2 -36 -3 -49 -4 -15 -1 -21 -5 -15 -9 13 -12 349 -162 362 -162
6 0 93 41 194 91 101 50 214 106 253 125 l70 35 -43 -2 c-23 -2 -44 -4 -45 -5z"/>
<path d="M3215 898 c-27 -4 -70 -10 -95 -13 -126 -16 -222 -33 -195 -35 17 -1
39 -3 50 -5 18 -4 57 -9 145 -20 14 -2 54 -6 90 -10 36 -4 72 -8 80 -10 8 -2
40 -7 70 -10 30 -3 66 -8 80 -10 14 -2 45 -6 70 -10 38 -5 25 3 -85 54 -71 34
-137 65 -145 69 -8 4 -37 5 -65 0z"/>
</g>
</svg>
